<svg width="20" height="20" viewBox="0 0 20 20" fill="none" xmlns="http://www.w3.org/2000/svg">
<path fill-rule="evenodd" clip-rule="evenodd" d="M10.2607 19.9966C10.174 19.9988 10.0871 20 10 20C9.9128 20 9.8259 19.9988 9.7393 19.9966C5.68318 19.8928 2.22762 17.3738 0.7573 13.8242C-0.25808 11.3674 -0.2524 8.588 0.77433 6.13481C1.27688 4.93672 2.00599 3.85718 2.90808 2.94979L2.94983 2.90804C3.85259 2.01056 4.92574 1.28429 6.1165 0.782019C8.5894 -0.258771 11.3958 -0.260671 13.87 0.776329C15.0688 1.27993 16.1488 2.01042 17.0562 2.91407L17.0859 2.94373C17.9989 3.86054 18.7351 4.95351 19.2392 6.16721C19.7279 7.34662 19.9812 8.6006 19.999 9.8573C19.9997 9.9047 20 9.9523 20 10C20 10.0506 19.9996 10.1012 19.9989 10.1516C19.9376 14.2743 17.3814 17.7925 13.7731 19.2637C12.6481 19.7213 11.4566 19.9656 10.2607 19.9966ZM12.0322 13.4464L14.906 16.3202C12.0281 18.5599 7.97192 18.5599 5.09402 16.3202L7.96779 13.4464C9.2175 14.1845 10.7825 14.1845 12.0322 13.4464ZM6.55358 12.0322L3.67981 14.906C1.44007 12.0281 1.44007 7.97192 3.67981 5.09402L6.55358 7.96779C5.81548 9.2175 5.81548 10.7825 6.55358 12.0322ZM8.0824 10.5694C8.0773 10.5523 8.0725 10.5351 8.0679 10.5179C7.97738 10.179 7.97738 9.821 8.0679 9.4821C8.1556 9.1537 8.3282 8.8434 8.5858 8.5858C8.8299 8.3417 9.1213 8.1739 9.4306 8.0824C9.4477 8.0773 9.4649 8.0725 9.4821 8.0679C9.821 7.97738 10.179 7.97737 10.5179 8.0679C10.8463 8.1556 11.1566 8.3282 11.4142 8.5858C11.6583 8.8299 11.8261 9.1213 11.9176 9.4306C11.9227 9.4477 11.9275 9.4649 11.9321 9.4821C12.0226 9.821 12.0226 10.179 11.9321 10.5179C11.8444 10.8462 11.6718 11.1566 11.4142 11.4142C11.1701 11.6583 10.8787 11.8261 10.5694 11.9176C10.5523 11.9227 10.5351 11.9275 10.5179 11.9321C10.179 12.0226 9.821 12.0226 9.4821 11.9321C9.1538 11.8444 8.8434 11.6718 8.5858 11.4142C8.3417 11.1701 8.1739 10.8787 8.0824 10.5694ZM12.0322 6.55357C10.7825 5.81548 9.2175 5.81548 7.96779 6.55357L5.09402 3.6798C7.97192 1.44007 12.0281 1.44007 14.906 3.6798L12.0322 6.55357ZM16.3202 14.906C18.5599 12.0281 18.5599 7.97192 16.3202 5.09402L13.4464 7.96779C14.1845 9.2175 14.1845 10.7825 13.4464 12.0322L16.3202 14.906Z" fill="#9CA3AF"/>
</svg>
