<svg width="16" height="16" viewBox="0 0 16 16" fill="none"
  xmlns="http://www.w3.org/2000/svg">
  <path d="M2.22566 0.811078C1.83513 0.420558 1.20197 0.420558 0.811445 0.811078C0.420925 1.20161 0.420925 1.83477 0.811445 2.2253L6.58616 8L0.811505 13.7747C0.420985 14.1652 0.420985 14.7984 0.811505 15.1889C1.20203 15.5794 1.83519 15.5794 2.22571 15.1889L8.00036 9.4142L13.7751 15.1889C14.1656 15.5794 14.7988 15.5794 15.1893 15.1889C15.5798 14.7984 15.5798 14.1652 15.1893 13.7747L9.41456 8L15.1894 2.2253C15.5799 1.83477 15.5799 1.20161 15.1894 0.811078C14.7989 0.420558 14.1657 0.420558 13.7752 0.811078L8.00036 6.5858L2.22566 0.811078Z" fill="#333333"/>
</svg>
