<svg width="18" height="22" viewBox="0 0 18 22" fill="none" xmlns="http://www.w3.org/2000/svg">
<path fill-rule="evenodd" clip-rule="evenodd" d="M3 21.8789C1.34315 21.8789 0 20.5357 0 18.8789V8.8789C0 8.84501 0.00169009 8.8115 0.00498009 8.77847H0C0 8.20251 0.2288 7.65013 0.63607 7.24286L6.87868 1.00026C8.0502 -0.171312 9.9497 -0.171312 11.1213 1.00026L17.3639 7.24288C17.7712 7.65014 18 8.20251 18 8.77847H17.995C17.9983 8.8115 18 8.84501 18 8.8789V18.8789C18 20.5357 16.6569 21.8789 15 21.8789H3ZM9.7071 2.41447L16 8.70737V18.8789C16 19.4311 15.5523 19.8789 15 19.8789H12V14.8789C12 13.222 10.6569 11.8789 9 11.8789C7.3431 11.8789 6 13.222 6 14.8789V19.8789H3C2.44772 19.8789 2 19.4311 2 18.8789V8.70744L8.2929 2.41447C8.6834 2.02395 9.3166 2.02395 9.7071 2.41447Z" fill="#9CA3AF"/>
</svg>
